<?xml version="1.0" encoding="UTF-8" standalone="no"?>
<!DOCTYPE svg PUBLIC "-//W3C//DTD SVG 1.1//EN" "http://www.w3.org/Graphics/SVG/1.1/DTD/svg11.dtd">
<svg width="100%" height="100%" viewBox="0 0 171 80" version="1.1" xmlns="http://www.w3.org/2000/svg" xmlns:xlink="http://www.w3.org/1999/xlink" xml:space="preserve" xmlns:serif="http://www.serif.com/" style="fill-rule:evenodd;clip-rule:evenodd;stroke-linejoin:round;stroke-miterlimit:2;">
    <g id="Untitled">
        <g>
            <path d="M18.177,22.381L18.185,22.361L18.634,21.239L18.642,21.217C18.648,21.202 18.653,21.187 18.658,21.173C18.846,20.628 18.556,20.034 18.012,19.847C17.467,19.659 16.874,19.949 16.686,20.493L16.28,21.674C16.107,22.181 16.358,22.743 16.861,22.944C17.38,23.154 17.97,22.901 18.177,22.381Z" style="fill:rgb(100,102,233);fill-rule:nonzero;"/>
            <path d="M15.971,25.799C15.49,25.69 15.012,25.991 14.901,26.472L14.624,27.688C14.523,28.134 14.787,28.586 15.232,28.71C15.691,28.839 16.167,28.571 16.296,28.113L16.302,28.093L16.634,26.908C16.638,26.895 16.642,26.882 16.644,26.869C16.753,26.388 16.452,25.91 15.971,25.799Z" style="fill:rgb(100,102,233);fill-rule:nonzero;"/>
            <path d="M15.283,32.796C15.284,32.785 15.285,32.774 15.286,32.763C15.328,32.354 15.03,31.99 14.623,31.948C14.214,31.907 13.85,32.205 13.808,32.612L13.682,33.851C13.644,34.226 13.908,34.569 14.284,34.627C14.673,34.686 15.036,34.419 15.095,34.03L15.097,34.011L15.278,32.817L15.283,32.796Z" style="fill:rgb(100,102,233);fill-rule:nonzero;"/>
            <path d="M14.088,40.612C14.398,40.618 14.656,40.371 14.662,40.061L14.662,40.046L14.687,38.834L14.687,38.79C14.677,38.463 14.404,38.205 14.077,38.215C13.749,38.225 13.492,38.497 13.502,38.824L13.537,40.066C13.547,40.363 13.788,40.605 14.088,40.612Z" style="fill:rgb(100,102,233);fill-rule:nonzero;"/>
            <path d="M14.867,44.896L14.866,44.885C14.864,44.879 14.864,44.872 14.863,44.865C14.826,44.624 14.601,44.458 14.359,44.494C14.117,44.529 13.952,44.756 13.987,44.998L14.173,46.219C14.206,46.435 14.402,46.59 14.621,46.568C14.849,46.545 15.013,46.342 14.99,46.117L14.988,46.107L14.867,44.896Z" style="fill:rgb(100,102,233);fill-rule:nonzero;"/>
            <path d="M15.738,50.901C15.697,50.746 15.538,50.651 15.382,50.692C15.226,50.732 15.132,50.892 15.172,51.047L15.48,52.24C15.517,52.373 15.654,52.46 15.792,52.43C15.933,52.398 16.022,52.258 15.99,52.117L15.744,50.921C15.741,50.916 15.739,50.906 15.738,50.901Z" style="fill:rgb(100,102,233);fill-rule:nonzero;"/>
            <path d="M17.437,58.181C17.495,58.163 17.53,58.102 17.511,58.041L17.173,56.864C17.173,56.861 17.17,56.858 17.17,56.855C17.145,56.78 17.064,56.741 16.99,56.767C16.915,56.793 16.876,56.874 16.902,56.947L17.299,58.11C17.319,58.167 17.379,58.198 17.437,58.181Z" style="fill:rgb(100,102,233);fill-rule:nonzero;"/>
            <path d="M33.093,67.311C33.088,67.296 33.073,67.289 33.058,67.292C33.044,67.296 33.036,67.312 33.04,67.325L33.399,68.499L33.092,67.311C33.093,67.312 33.093,67.311 33.093,67.311Z" style="fill:rgb(100,102,233);fill-rule:nonzero;"/>
            <path d="M31.678,61.337C31.655,61.251 31.567,61.2 31.48,61.223C31.393,61.246 31.342,61.335 31.366,61.422L31.683,62.609C31.703,62.678 31.773,62.722 31.844,62.706C31.916,62.689 31.962,62.617 31.946,62.544L31.681,61.347C31.68,61.343 31.68,61.34 31.678,61.337Z" style="fill:rgb(100,102,233);fill-rule:nonzero;"/>
            <path d="M30.514,55.312C30.479,55.152 30.321,55.051 30.161,55.085C30.001,55.121 29.9,55.279 29.934,55.439L30.198,56.639C30.23,56.779 30.368,56.874 30.511,56.847C30.658,56.82 30.755,56.679 30.728,56.533L30.518,55.327C30.517,55.325 30.516,55.317 30.514,55.312Z" style="fill:rgb(100,102,233);fill-rule:nonzero;"/>
            <path d="M29.458,50.938C29.68,50.91 29.836,50.706 29.808,50.484L29.666,49.27C29.664,49.264 29.663,49.252 29.662,49.246C29.624,49.01 29.402,48.85 29.166,48.889C28.931,48.927 28.771,49.149 28.81,49.384L29.007,50.601C29.044,50.813 29.242,50.966 29.458,50.938Z" style="fill:rgb(100,102,233);fill-rule:nonzero;"/>
            <path d="M29.252,44.413L29.252,44.405L29.191,43.187L29.191,43.178C29.191,43.17 29.19,43.163 29.19,43.156C29.16,42.844 28.884,42.615 28.573,42.644C28.261,42.673 28.032,42.949 28.061,43.261L28.177,44.49C28.203,44.776 28.451,44.993 28.741,44.978C29.039,44.964 29.268,44.71 29.252,44.413Z" style="fill:rgb(100,102,233);fill-rule:nonzero;"/>
            <path d="M28.442,38.984C28.814,38.995 29.125,38.702 29.136,38.329L29.136,38.317L29.171,37.102L29.171,37.059C29.165,36.672 28.848,36.363 28.46,36.368C28.072,36.374 27.763,36.691 27.768,37.079L27.787,38.318C27.793,38.679 28.08,38.974 28.442,38.984Z" style="fill:rgb(100,102,233);fill-rule:nonzero;"/>
            <path d="M28.911,30.112C28.45,30.076 28.048,30.421 28.012,30.882L27.917,32.12C27.885,32.549 28.195,32.933 28.626,32.986C29.07,33.04 29.473,32.723 29.527,32.279L29.529,32.263L29.675,31.063L29.678,31.044C29.679,31.033 29.68,31.022 29.682,31.011C29.717,30.55 29.372,30.148 28.911,30.112Z" style="fill:rgb(100,102,233);fill-rule:nonzero;"/>
            <path d="M29.997,23.933C29.468,23.837 28.963,24.188 28.867,24.715L28.645,25.942C28.557,26.436 28.871,26.919 29.365,27.031C29.874,27.146 30.38,26.827 30.495,26.319L30.5,26.3L30.767,25.124L30.772,25.1C30.774,25.088 30.777,25.074 30.779,25.062C30.875,24.534 30.524,24.028 29.997,23.933Z" style="fill:rgb(100,102,233);fill-rule:nonzero;"/>
            <path d="M31.753,17.909C31.167,17.735 30.551,18.069 30.377,18.656L30.021,19.855C29.859,20.405 30.156,20.994 30.705,21.182C31.267,21.378 31.882,21.078 32.077,20.514L32.086,20.491L32.478,19.354L32.487,19.328C32.492,19.314 32.497,19.3 32.5,19.285C32.673,18.699 32.34,18.082 31.753,17.909Z" style="fill:rgb(100,102,233);fill-rule:nonzero;"/>
            <path d="M34.286,14.921L34.292,14.909L34.523,14.415L34.529,14.401C34.536,14.386 34.542,14.37 34.549,14.355C34.808,13.73 34.511,13.011 33.884,12.752C33.257,12.493 32.539,12.79 32.281,13.417L32.064,13.942C31.818,14.538 32.081,15.231 32.672,15.507C33.279,15.792 34.002,15.529 34.286,14.921Z" style="fill:rgb(100,102,233);fill-rule:nonzero;"/>
            <path d="M52.396,15.469L52.961,14.409L52.976,14.382C52.988,14.36 52.999,14.337 53.01,14.314C53.368,13.546 53.037,12.633 52.269,12.274C51.501,11.916 50.589,12.247 50.229,13.015L49.698,14.152C49.365,14.869 49.644,15.734 50.351,16.11C51.082,16.501 51.991,16.225 52.381,15.493L52.396,15.469Z" style="fill:rgb(100,102,233);fill-rule:nonzero;"/>
            <path d="M49.538,17.959C48.825,17.703 48.04,18.072 47.783,18.785L47.359,19.963C47.121,20.627 47.441,21.371 48.099,21.648C48.78,21.936 49.563,21.615 49.85,20.935L49.861,20.91L50.328,19.802L50.339,19.776C50.347,19.755 50.356,19.734 50.363,19.712C50.619,19.002 50.25,18.215 49.538,17.959Z" style="fill:rgb(100,102,233);fill-rule:nonzero;"/>
            <path d="M47.847,26.602L47.855,26.578L48.212,25.429L48.22,25.403C48.226,25.384 48.231,25.365 48.236,25.346C48.399,24.699 48.008,24.042 47.362,23.879C46.715,23.715 46.058,24.107 45.895,24.753L45.588,25.966C45.437,26.566 45.781,27.19 46.379,27.376C46.997,27.567 47.655,27.221 47.847,26.602Z" style="fill:rgb(100,102,233);fill-rule:nonzero;"/>
            <path d="M45.224,33.242C45.771,33.353 46.304,32.999 46.416,32.452L46.42,32.432L46.659,31.249L46.664,31.226C46.667,31.209 46.67,31.191 46.672,31.174C46.757,30.604 46.362,30.073 45.792,29.988C45.221,29.904 44.69,30.298 44.605,30.869L44.423,32.103C44.347,32.63 44.694,33.136 45.224,33.242Z" style="fill:rgb(100,102,233);fill-rule:nonzero;"/>
            <path d="M44.645,39.191C45.111,39.238 45.527,38.898 45.573,38.432L45.574,38.415L45.696,37.21L45.698,37.191C45.7,37.176 45.701,37.161 45.702,37.147C45.725,36.661 45.35,36.247 44.863,36.224C44.376,36.201 43.964,36.576 43.941,37.063L43.882,38.306C43.862,38.753 44.195,39.146 44.645,39.191Z" style="fill:rgb(100,102,233);fill-rule:nonzero;"/>
            <path d="M45.312,44.488L45.312,44.475L45.319,43.259L45.319,43.244C45.319,43.232 45.319,43.221 45.318,43.208C45.3,42.812 44.964,42.505 44.567,42.525C44.171,42.543 43.865,42.88 43.884,43.276L43.942,44.517C43.959,44.878 44.256,45.168 44.621,45.17C45,45.171 45.31,44.865 45.312,44.488Z" style="fill:rgb(100,102,233);fill-rule:nonzero;"/>
            <path d="M45.588,50.551L45.588,50.542L45.492,49.331L45.491,49.32C45.49,49.311 45.49,49.302 45.489,49.292C45.448,48.988 45.17,48.775 44.865,48.815C44.561,48.855 44.348,49.134 44.388,49.438L44.55,50.658C44.587,50.931 44.831,51.132 45.108,51.11C45.397,51.089 45.611,50.838 45.588,50.551Z" style="fill:rgb(100,102,233);fill-rule:nonzero;"/>
            <path d="M46.344,56.592L46.158,55.388C46.157,55.382 46.155,55.369 46.153,55.362C46.109,55.15 45.902,55.015 45.69,55.06C45.478,55.104 45.343,55.311 45.387,55.523L45.638,56.724C45.68,56.908 45.86,57.037 46.049,57.005C46.244,56.973 46.377,56.788 46.344,56.592Z" style="fill:rgb(100,102,233);fill-rule:nonzero;"/>
            <path d="M46.962,61.227C46.84,61.26 46.769,61.386 46.802,61.508L47.129,62.69C47.157,62.789 47.26,62.852 47.362,62.829C47.467,62.804 47.532,62.699 47.509,62.594L47.248,61.401C47.246,61.397 47.245,61.39 47.244,61.386C47.21,61.265 47.084,61.194 46.962,61.227Z" style="fill:rgb(100,102,233);fill-rule:nonzero;"/>
            <path d="M48.684,67.345C48.673,67.311 48.636,67.292 48.602,67.303C48.567,67.314 48.549,67.351 48.56,67.385L48.946,68.55C48.952,68.566 48.97,68.575 48.986,68.57C49.003,68.566 49.013,68.547 49.008,68.53L48.684,67.348C48.685,67.349 48.684,67.346 48.684,67.345Z" style="fill:rgb(100,102,233);fill-rule:nonzero;"/>
            <path d="M64.552,63.979C64.526,63.985 64.51,64.011 64.517,64.036L64.8,65.228L64.61,64.017C64.61,64.016 64.61,64.014 64.609,64.012C64.604,63.989 64.578,63.973 64.552,63.979Z" style="fill:rgb(100,102,233);fill-rule:nonzero;"/>
            <path d="M63.935,57.938C63.935,57.931 63.934,57.92 63.933,57.913C63.908,57.758 63.762,57.653 63.608,57.677C63.453,57.702 63.348,57.848 63.372,58.002L63.566,59.212C63.587,59.332 63.699,59.421 63.822,59.409C63.952,59.397 64.048,59.281 64.035,59.151L63.935,57.938Z" style="fill:rgb(100,102,233);fill-rule:nonzero;"/>
            <path d="M63.697,53.06L63.697,53.054L63.678,51.834L63.678,51.826C63.678,51.814 63.676,51.801 63.675,51.787C63.648,51.501 63.396,51.292 63.109,51.317C62.822,51.343 62.613,51.597 62.639,51.884L62.754,53.112C62.777,53.355 62.985,53.545 63.232,53.54C63.494,53.536 63.702,53.322 63.697,53.06Z" style="fill:rgb(100,102,233);fill-rule:nonzero;"/>
            <path d="M63.752,46.964L63.752,46.954L63.809,45.737L63.809,45.726C63.81,45.708 63.81,45.688 63.809,45.67C63.797,45.253 63.447,44.924 63.03,44.937C62.613,44.949 62.284,45.298 62.297,45.715L62.335,46.952C62.347,47.317 62.639,47.62 63.01,47.639C63.402,47.657 63.734,47.355 63.752,46.964Z" style="fill:rgb(100,102,233);fill-rule:nonzero;"/>
            <path d="M62.343,39.524L62.303,40.762C62.288,41.251 62.65,41.679 63.144,41.733C63.663,41.79 64.13,41.416 64.187,40.897L64.188,40.885L64.322,39.677L64.323,39.662C64.325,39.638 64.326,39.613 64.328,39.589C64.346,39.04 63.916,38.582 63.368,38.563C62.82,38.546 62.362,38.975 62.343,39.524Z" style="fill:rgb(100,102,233);fill-rule:nonzero;"/>
            <path d="M65.013,34.875L65.228,33.684L65.232,33.665C65.237,33.636 65.242,33.605 65.244,33.575C65.313,32.899 64.821,32.297 64.145,32.228C63.469,32.159 62.867,32.651 62.798,33.327L62.673,34.566C62.613,35.173 63.029,35.737 63.64,35.847C64.281,35.963 64.896,35.536 65.011,34.894L65.013,34.875Z" style="fill:rgb(100,102,233);fill-rule:nonzero;"/>
            <path d="M65.412,25.965C64.616,25.821 63.853,26.35 63.71,27.147L63.487,28.379C63.36,29.099 63.804,29.814 64.524,30.002C65.281,30.199 66.056,29.747 66.253,28.988L66.26,28.964L66.564,27.8L66.57,27.774C66.579,27.738 66.587,27.703 66.593,27.667C66.738,26.871 66.209,26.11 65.412,25.965Z" style="fill:rgb(100,102,233);fill-rule:nonzero;"/>
            <path d="M67.263,19.848C66.358,19.594 65.418,20.123 65.165,21.028L64.826,22.243C64.598,23.067 65.035,23.945 65.851,24.243C66.709,24.556 67.658,24.114 67.971,23.257L67.984,23.221L68.393,22.101L68.405,22.067C68.42,22.028 68.432,21.987 68.444,21.945C68.697,21.04 68.168,20.101 67.263,19.848Z" style="fill:rgb(100,102,233);fill-rule:nonzero;"/>
            <path d="M86.507,38.204C86.507,38.204 86.156,39.381 86.156,39.38C86.155,39.386 86.157,39.391 86.163,39.392C86.168,39.394 86.174,39.391 86.176,39.385L86.507,38.204Z" style="fill:rgb(100,102,233);fill-rule:nonzero;"/>
            <path d="M84.519,44.003L84.05,45.135L84.049,45.138C84.037,45.168 84.051,45.204 84.083,45.216C84.114,45.228 84.149,45.214 84.162,45.182L84.613,44.04C84.623,44.014 84.611,43.985 84.585,43.975C84.558,43.964 84.528,43.977 84.519,44.003Z" style="fill:rgb(100,102,233);fill-rule:nonzero;"/>
            <path d="M81.927,49.548L81.333,50.618L81.331,50.622C81.302,50.676 81.322,50.743 81.376,50.771C81.43,50.8 81.498,50.78 81.526,50.726L82.103,49.642C82.128,49.593 82.11,49.531 82.062,49.506C82.014,49.48 81.953,49.499 81.927,49.548Z" style="fill:rgb(100,102,233);fill-rule:nonzero;"/>
            <path d="M78.702,54.742L77.98,55.728C77.98,55.728 77.976,55.733 77.976,55.734C77.924,55.807 77.942,55.907 78.014,55.959C78.086,56.01 78.187,55.993 78.238,55.921L78.95,54.916C78.995,54.847 78.981,54.752 78.913,54.705C78.844,54.656 78.75,54.673 78.702,54.742Z" style="fill:rgb(100,102,233);fill-rule:nonzero;"/>
            <path d="M74.832,59.462L73.981,60.336C73.981,60.336 73.975,60.342 73.975,60.344C73.895,60.428 73.899,60.562 73.983,60.642C74.068,60.721 74.202,60.718 74.281,60.633L75.127,59.735C75.199,59.653 75.197,59.524 75.117,59.45C75.033,59.375 74.907,59.38 74.832,59.462Z" style="fill:rgb(100,102,233);fill-rule:nonzero;"/>
            <path d="M70.338,63.566L70.332,63.571L69.362,64.308L69.354,64.314C69.353,64.314 69.353,64.315 69.352,64.315C69.238,64.405 69.218,64.569 69.308,64.682C69.397,64.795 69.562,64.816 69.674,64.726L70.645,63.965C70.753,63.88 70.772,63.724 70.69,63.615C70.605,63.503 70.448,63.483 70.338,63.566Z" style="fill:rgb(100,102,233);fill-rule:nonzero;"/>
            <path d="M65.275,66.937L65.266,66.942L64.194,67.517L64.184,67.522C64.183,67.522 64.182,67.523 64.182,67.523C64.032,67.606 63.978,67.796 64.061,67.947C64.145,68.097 64.335,68.151 64.486,68.068L65.565,67.465C65.709,67.385 65.762,67.204 65.684,67.059C65.603,66.912 65.421,66.858 65.275,66.937Z" style="fill:rgb(100,102,233);fill-rule:nonzero;"/>
            <path d="M59.755,69.474L59.745,69.478L58.598,69.882L58.586,69.885C58.585,69.885 58.584,69.887 58.582,69.887C58.395,69.956 58.299,70.164 58.369,70.351C58.439,70.539 58.646,70.635 58.834,70.565L59.994,70.135C60.173,70.069 60.268,69.871 60.204,69.689C60.139,69.506 59.938,69.409 59.755,69.474Z" style="fill:rgb(100,102,233);fill-rule:nonzero;"/>
            <path d="M53.918,71.145L53.907,71.147L52.713,71.379L52.7,71.382C52.698,71.382 52.697,71.382 52.695,71.383C52.472,71.43 52.329,71.648 52.377,71.871C52.425,72.094 52.642,72.237 52.865,72.189L54.076,71.934C54.289,71.888 54.429,71.68 54.387,71.464C54.346,71.246 54.136,71.103 53.918,71.145Z" style="fill:rgb(100,102,233);fill-rule:nonzero;"/>
            <path d="M47.904,71.978L47.893,71.979L46.68,72.05L46.666,72.051L46.661,72.051C46.406,72.071 46.216,72.293 46.236,72.547C46.255,72.802 46.477,72.992 46.731,72.973L47.965,72.879C48.21,72.861 48.397,72.649 48.382,72.402C48.366,72.153 48.153,71.963 47.904,71.978Z" style="fill:rgb(100,102,233);fill-rule:nonzero;"/>
            <path d="M41.83,72.048L41.819,72.047L40.606,71.977L40.591,71.975L40.585,71.975C40.301,71.964 40.062,72.184 40.051,72.467C40.04,72.751 40.26,72.99 40.543,73.001L41.781,73.052C42.054,73.063 42.287,72.854 42.303,72.579C42.319,72.302 42.107,72.064 41.83,72.048Z" style="fill:rgb(100,102,233);fill-rule:nonzero;"/>
            <path d="M35.8,71.409L35.785,71.406L34.593,71.189L34.576,71.185C34.573,71.185 34.572,71.184 34.57,71.184C34.262,71.134 33.971,71.341 33.921,71.649C33.87,71.957 34.078,72.248 34.386,72.298L35.61,72.5C35.908,72.549 36.191,72.351 36.245,72.053C36.301,71.753 36.102,71.464 35.8,71.409Z" style="fill:rgb(100,102,233);fill-rule:nonzero;"/>
            <path d="M29.917,70.009L29.9,70.003L28.751,69.625L28.731,69.619C28.729,69.618 28.726,69.618 28.724,69.617C28.398,69.516 28.053,69.698 27.952,70.023C27.852,70.348 28.033,70.694 28.358,70.794L29.548,71.163C29.863,71.262 30.199,71.089 30.303,70.775C30.408,70.457 30.235,70.115 29.917,70.009Z" style="fill:rgb(100,102,233);fill-rule:nonzero;"/>
            <path d="M24.313,67.787L24.293,67.777L23.22,67.229C23.22,67.229 23.193,67.215 23.191,67.214C22.859,67.052 22.459,67.189 22.296,67.52C22.133,67.852 22.272,68.251 22.603,68.415L23.724,68.964C24.045,69.121 24.435,68.992 24.599,68.672C24.764,68.348 24.635,67.952 24.313,67.787Z" style="fill:rgb(100,102,233);fill-rule:nonzero;"/>
            <path d="M19.135,64.689L18.175,63.968L18.152,63.95C18.149,63.949 18.147,63.946 18.145,63.945C17.824,63.712 17.374,63.783 17.141,64.104C16.908,64.426 16.979,64.876 17.3,65.109L18.315,65.845C18.628,66.072 19.066,66.007 19.299,65.697C19.534,65.384 19.47,64.938 19.157,64.704L19.135,64.689Z" style="fill:rgb(100,102,233);fill-rule:nonzero;"/>
            <path d="M14.629,60.746L13.826,59.859L13.802,59.833C13.8,59.831 13.799,59.829 13.796,59.827C13.504,59.517 13.017,59.501 12.706,59.792C12.395,60.084 12.379,60.571 12.67,60.882L13.53,61.8C13.813,62.101 14.288,62.122 14.596,61.843C14.907,61.56 14.931,61.08 14.649,60.768L14.629,60.746Z" style="fill:rgb(100,102,233);fill-rule:nonzero;"/>
            <path d="M10.995,56.019L10.39,54.991L10.37,54.958C10.369,54.955 10.367,54.953 10.365,54.949C10.129,54.562 9.622,54.439 9.234,54.676C8.847,54.912 8.724,55.419 8.961,55.807L9.618,56.882C9.849,57.259 10.341,57.384 10.723,57.159C11.11,56.932 11.24,56.435 11.012,56.048L10.995,56.019Z" style="fill:rgb(100,102,233);fill-rule:nonzero;"/>
            <path d="M8.429,50.658L8.057,49.529L8.043,49.49C8.042,49.486 8.041,49.484 8.04,49.48C7.881,49.024 7.383,48.782 6.927,48.941C6.471,49.1 6.229,49.597 6.389,50.054L6.803,51.247C6.958,51.691 7.44,51.932 7.889,51.785C8.343,51.636 8.589,51.148 8.44,50.694L8.429,50.658Z" style="fill:rgb(100,102,233);fill-rule:nonzero;"/>
            <path d="M7.072,44.924L7.068,44.885L6.946,43.704L6.941,43.661C6.941,43.657 6.939,43.654 6.939,43.65C6.878,43.142 6.417,42.78 5.909,42.842C5.401,42.903 5.039,43.364 5.101,43.872L5.253,45.128C5.313,45.622 5.759,45.98 6.256,45.928C6.759,45.877 7.125,45.427 7.072,44.924Z" style="fill:rgb(100,102,233);fill-rule:nonzero;"/>
            <path d="M5.878,39.861C6.41,39.916 6.884,39.53 6.939,38.999L6.943,38.958L7.065,37.779L7.069,37.734C7.069,37.73 7.071,37.727 7.071,37.723C7.117,37.185 6.719,36.711 6.18,36.666C5.642,36.619 5.168,37.018 5.123,37.556L5.014,38.818C4.97,39.341 5.352,39.807 5.878,39.861Z" style="fill:rgb(100,102,233);fill-rule:nonzero;"/>
            <path d="M6.746,33.846C7.28,34.02 7.856,33.729 8.03,33.194L8.043,33.153L8.41,32.029L8.425,31.983C8.426,31.979 8.427,31.975 8.429,31.972C8.597,31.428 8.291,30.853 7.748,30.685C7.204,30.518 6.629,30.822 6.461,31.366L6.087,32.58C5.926,33.106 6.217,33.673 6.746,33.846Z" style="fill:rgb(100,102,233);fill-rule:nonzero;"/>
            <path d="M10.327,27.764L10.351,27.725L10.948,26.706L10.974,26.662C10.976,26.658 10.977,26.654 10.98,26.651C11.273,26.131 11.089,25.472 10.569,25.179C10.049,24.886 9.39,25.07 9.097,25.59L8.473,26.697C8.187,27.205 8.36,27.85 8.864,28.146C9.373,28.445 10.029,28.273 10.327,27.764Z" style="fill:rgb(100,102,233);fill-rule:nonzero;"/>
            <path d="M13.715,22.939L13.746,22.905L14.539,22.029L14.574,21.992C14.576,21.988 14.58,21.986 14.582,21.982C14.994,21.511 14.947,20.796 14.477,20.384C14.006,19.972 13.291,20.02 12.879,20.489L12.041,21.446C11.639,21.905 11.678,22.605 12.132,23.016C12.59,23.433 13.299,23.398 13.715,22.939Z" style="fill:rgb(100,102,233);fill-rule:nonzero;"/>
            <path d="M17.583,16.236L16.579,17.015C16.075,17.406 15.976,18.132 16.36,18.645C16.748,19.164 17.483,19.269 18.002,18.88L18.038,18.854L19.024,18.115C19.027,18.112 19.031,18.109 19.035,18.106C19.551,17.705 19.646,16.962 19.245,16.445C18.843,15.928 18.099,15.835 17.583,16.236Z" style="fill:rgb(100,102,233);fill-rule:nonzero;"/>
            <path d="M22.967,12.902L21.847,13.493C21.259,13.805 21.024,14.533 21.327,15.131C21.633,15.734 22.37,15.974 22.973,15.669L23.01,15.65L24.068,15.115L24.109,15.094C24.113,15.091 24.118,15.089 24.121,15.088C24.725,14.769 24.956,14.02 24.637,13.418C24.318,12.813 23.571,12.583 22.967,12.902Z" style="fill:rgb(100,102,233);fill-rule:nonzero;"/>
            <path d="M28.423,13.323L28.46,13.31L29.591,12.944L29.633,12.93C29.637,12.929 29.642,12.926 29.647,12.925C30.319,12.695 30.677,11.962 30.447,11.29C30.216,10.618 29.484,10.26 28.812,10.49L27.616,10.9C26.959,11.126 26.6,11.838 26.816,12.502C27.032,13.173 27.752,13.54 28.423,13.323Z" style="fill:rgb(100,102,233);fill-rule:nonzero;"/>
            <path d="M34.929,8.955L33.69,9.195C32.981,9.334 32.509,10.016 32.635,10.73C32.763,11.452 33.452,11.934 34.175,11.806L34.21,11.8L35.384,11.593L35.424,11.586C35.429,11.584 35.434,11.583 35.439,11.583C36.165,11.442 36.64,10.739 36.499,10.014C36.358,9.288 35.655,8.815 34.929,8.955Z" style="fill:rgb(100,102,233);fill-rule:nonzero;"/>
            <path d="M41.183,8.225L39.927,8.311C39.178,8.362 38.605,9.005 38.643,9.758C38.682,10.519 39.331,11.105 40.092,11.066L40.125,11.064L41.317,11.003L41.356,11.001C41.361,11.001 41.367,11.001 41.372,10.999C42.139,10.947 42.717,10.284 42.665,9.518C42.612,8.751 41.949,8.172 41.183,8.225Z" style="fill:rgb(100,102,233);fill-rule:nonzero;"/>
            <path d="M46.037,11.035L46.079,11.039L47.261,11.128L47.309,11.132C47.314,11.132 47.319,11.133 47.322,11.133C48.116,11.181 48.798,10.577 48.846,9.784C48.894,8.99 48.29,8.308 47.497,8.26L46.231,8.183C45.453,8.136 44.778,8.723 44.719,9.502C44.661,10.289 45.249,10.975 46.037,11.035Z" style="fill:rgb(100,102,233);fill-rule:nonzero;"/>
            <path d="M53.768,9.19L52.526,8.933C51.738,8.769 50.962,9.267 50.786,10.055C50.608,10.85 51.109,11.638 51.904,11.816L51.945,11.826L53.101,12.084L53.15,12.095C53.155,12.096 53.16,12.097 53.163,12.097C53.966,12.264 54.752,11.749 54.919,10.945C55.087,10.142 54.571,9.357 53.768,9.19Z" style="fill:rgb(100,102,233);fill-rule:nonzero;"/>
            <path d="M59.846,11.007L58.652,10.575C57.872,10.293 57.007,10.688 56.713,11.467C56.415,12.252 56.811,13.13 57.596,13.428L57.637,13.444L58.743,13.863L58.791,13.882C58.796,13.883 58.801,13.886 58.804,13.887C59.599,14.174 60.476,13.763 60.765,12.968C61.051,12.171 60.641,11.294 59.846,11.007Z" style="fill:rgb(100,102,233);fill-rule:nonzero;"/>
            <path d="M63.001,15.822L63.04,15.843L64.076,16.412L64.122,16.437C64.126,16.439 64.13,16.442 64.135,16.444C64.904,16.851 65.859,16.558 66.266,15.789C66.673,15.02 66.38,14.066 65.611,13.659L64.488,13.065C63.734,12.666 62.795,12.945 62.382,13.695C61.965,14.453 62.243,15.405 63.001,15.822Z" style="fill:rgb(100,102,233);fill-rule:nonzero;"/>
            <path d="M69.923,16.34C69.211,15.826 68.214,15.978 67.687,16.686C67.156,17.401 67.305,18.41 68.019,18.942L68.054,18.969L69.002,19.674L69.044,19.704C69.048,19.708 69.053,19.711 69.056,19.713C69.782,20.237 70.797,20.072 71.321,19.346C71.844,18.62 71.68,17.606 70.954,17.082L69.923,16.34Z" style="fill:rgb(100,102,233);fill-rule:nonzero;"/>
            <path d="M75.788,21.206L74.867,20.329C74.212,19.706 73.175,19.722 72.54,20.368C71.898,21.022 71.908,22.072 72.562,22.712L72.595,22.744L73.439,23.571L73.477,23.609C73.481,23.612 73.484,23.616 73.488,23.62C74.155,24.255 75.21,24.229 75.845,23.562C76.481,22.897 76.455,21.841 75.788,21.206Z" style="fill:rgb(100,102,233);fill-rule:nonzero;"/>
            <path d="M79.748,28.36C80.488,27.77 80.609,26.692 80.019,25.953L79.226,24.957C78.647,24.231 77.588,24.102 76.851,24.672C76.107,25.247 75.971,26.318 76.546,27.062L76.575,27.1L77.298,28.033L77.332,28.077C77.336,28.082 77.339,28.086 77.342,28.091C77.931,28.83 79.009,28.952 79.748,28.36Z" style="fill:rgb(100,102,233);fill-rule:nonzero;"/>
            <path d="M82.95,33.653C83.785,33.158 84.061,32.078 83.566,31.243L82.915,30.146C82.428,29.327 81.371,29.045 80.541,29.521C79.703,30.002 79.412,31.07 79.893,31.909L79.918,31.952L80.503,32.974L80.531,33.024C80.533,33.029 80.537,33.034 80.54,33.039C81.035,33.873 82.114,34.149 82.95,33.653Z" style="fill:rgb(100,102,233);fill-rule:nonzero;"/>
            <path d="M86.347,36.985L85.856,35.805C85.479,34.902 84.445,34.464 83.534,34.827C82.612,35.195 82.165,36.239 82.531,37.16L82.551,37.208L82.987,38.3L83.009,38.355C83.011,38.36 83.013,38.366 83.015,38.371C83.397,39.291 84.455,39.726 85.375,39.343C86.295,38.961 86.73,37.905 86.347,36.985Z" style="fill:rgb(100,102,233);fill-rule:nonzero;"/>
        </g>
        <g>
            <path d="M153.321,57.431L153.314,57.45L152.865,58.573L152.857,58.594C152.85,58.609 152.846,58.624 152.841,58.639C152.653,59.183 152.942,59.777 153.487,59.965C154.032,60.152 154.625,59.863 154.813,59.318L155.219,58.137C155.392,57.63 155.14,57.069 154.638,56.868C154.117,56.659 153.529,56.91 153.321,57.431Z" style="fill:rgb(100,102,233);fill-rule:nonzero;"/>
            <path d="M155.527,54.012C156.008,54.121 156.486,53.821 156.596,53.34L156.874,52.123C156.974,51.678 156.71,51.225 156.265,51.101C155.806,50.972 155.331,51.24 155.202,51.699L155.196,51.718L154.869,52.881L154.863,52.903C154.86,52.917 154.856,52.929 154.853,52.942C154.745,53.423 155.046,53.902 155.527,54.012Z" style="fill:rgb(100,102,233);fill-rule:nonzero;"/>
            <path d="M156.215,47.016C156.214,47.027 156.212,47.038 156.211,47.049C156.17,47.457 156.468,47.821 156.875,47.863C157.283,47.905 157.648,47.607 157.689,47.2L157.816,45.961C157.854,45.585 157.59,45.242 157.213,45.184C156.825,45.125 156.461,45.393 156.403,45.782L156.4,45.8L156.22,46.995L156.215,47.016Z" style="fill:rgb(100,102,233);fill-rule:nonzero;"/>
            <path d="M157.41,39.2C157.099,39.194 156.842,39.44 156.836,39.751L156.836,39.765L156.811,40.977L156.811,41.021C156.821,41.349 157.093,41.606 157.421,41.597C157.748,41.587 158.006,41.314 157.996,40.987L157.96,39.746C157.952,39.449 157.71,39.206 157.41,39.2Z" style="fill:rgb(100,102,233);fill-rule:nonzero;"/>
            <path d="M156.632,34.915L156.633,34.926C156.634,34.933 156.634,34.94 156.636,34.946C156.672,35.188 156.898,35.353 157.14,35.318C157.381,35.282 157.547,35.055 157.511,34.814L157.326,33.592C157.293,33.376 157.097,33.221 156.877,33.244C156.65,33.267 156.486,33.469 156.509,33.695L156.511,33.705L156.632,34.915Z" style="fill:rgb(100,102,233);fill-rule:nonzero;"/>
            <path d="M155.76,28.91C155.8,29.066 155.96,29.16 156.116,29.12C156.271,29.079 156.366,28.92 156.325,28.764L156.017,27.572C155.981,27.438 155.843,27.351 155.706,27.382C155.565,27.414 155.475,27.553 155.507,27.694L155.754,28.89C155.757,28.895 155.76,28.905 155.76,28.91Z" style="fill:rgb(100,102,233);fill-rule:nonzero;"/>
            <path d="M154.061,21.63C154.002,21.648 153.968,21.71 153.986,21.77L154.325,22.948C154.325,22.95 154.327,22.954 154.327,22.956C154.353,23.031 154.434,23.07 154.508,23.044C154.582,23.019 154.622,22.938 154.596,22.864L154.198,21.701C154.18,21.645 154.119,21.613 154.061,21.63Z" style="fill:rgb(100,102,233);fill-rule:nonzero;"/>
            <path d="M138.405,12.501C138.41,12.515 138.425,12.523 138.439,12.519C138.454,12.515 138.461,12.499 138.458,12.486L138.098,11.312L138.406,12.501C138.405,12.499 138.405,12.501 138.405,12.501Z" style="fill:rgb(100,102,233);fill-rule:nonzero;"/>
            <path d="M139.819,18.474C139.842,18.56 139.931,18.612 140.018,18.588C140.105,18.565 140.155,18.477 140.132,18.39L139.814,17.202C139.795,17.134 139.725,17.089 139.654,17.105C139.581,17.122 139.536,17.195 139.552,17.267L139.817,18.464C139.818,18.468 139.819,18.472 139.819,18.474Z" style="fill:rgb(100,102,233);fill-rule:nonzero;"/>
            <path d="M140.984,24.499C141.02,24.66 141.178,24.76 141.338,24.726C141.498,24.691 141.599,24.532 141.565,24.373L141.301,23.172C141.269,23.032 141.13,22.938 140.988,22.965C140.841,22.992 140.744,23.133 140.771,23.279L140.981,24.484C140.982,24.487 140.983,24.496 140.984,24.499Z" style="fill:rgb(100,102,233);fill-rule:nonzero;"/>
            <path d="M142.041,28.873C141.819,28.901 141.663,29.105 141.691,29.327L141.833,30.541C141.834,30.547 141.836,30.56 141.837,30.566C141.875,30.801 142.097,30.961 142.332,30.923C142.568,30.885 142.727,30.663 142.689,30.427L142.492,29.211C142.455,28.998 142.256,28.845 142.041,28.873Z" style="fill:rgb(100,102,233);fill-rule:nonzero;"/>
            <path d="M142.245,35.399L142.245,35.406L142.307,36.624L142.307,36.634C142.307,36.641 142.308,36.649 142.308,36.656C142.337,36.967 142.613,37.197 142.925,37.167C143.236,37.138 143.466,36.862 143.436,36.55L143.321,35.321C143.294,35.036 143.046,34.818 142.757,34.833C142.46,34.848 142.231,35.102 142.245,35.399Z" style="fill:rgb(100,102,233);fill-rule:nonzero;"/>
            <path d="M143.057,40.827C142.684,40.816 142.374,41.11 142.363,41.482L142.363,41.495L142.328,42.709L142.328,42.752C142.334,43.14 142.651,43.449 143.039,43.444C143.427,43.438 143.736,43.12 143.731,42.732L143.712,41.494C143.706,41.133 143.419,40.837 143.057,40.827Z" style="fill:rgb(100,102,233);fill-rule:nonzero;"/>
            <path d="M142.586,49.699C143.048,49.735 143.45,49.39 143.485,48.929L143.581,47.691C143.613,47.262 143.303,46.878 142.872,46.825C142.428,46.772 142.025,47.088 141.971,47.532L141.968,47.548L141.822,48.749L141.82,48.767C141.818,48.778 141.817,48.789 141.816,48.8C141.78,49.262 142.125,49.664 142.586,49.699Z" style="fill:rgb(100,102,233);fill-rule:nonzero;"/>
            <path d="M141.502,55.879C142.031,55.975 142.536,55.624 142.632,55.096L142.854,53.87C142.942,53.375 142.628,52.892 142.134,52.781C141.625,52.665 141.119,52.984 141.004,53.492L140.999,53.512L140.732,54.688L140.727,54.711C140.724,54.723 140.722,54.737 140.719,54.749C140.623,55.278 140.973,55.783 141.502,55.879Z" style="fill:rgb(100,102,233);fill-rule:nonzero;"/>
            <path d="M139.746,61.903C140.332,62.077 140.948,61.742 141.122,61.156L141.478,59.956C141.639,59.407 141.343,58.818 140.794,58.629C140.231,58.434 139.617,58.733 139.422,59.297L139.413,59.321L139.021,60.458L139.012,60.484C139.007,60.497 139.002,60.512 138.999,60.526C138.824,61.113 139.159,61.73 139.746,61.903Z" style="fill:rgb(100,102,233);fill-rule:nonzero;"/>
            <path d="M137.213,64.891L137.207,64.903L136.976,65.396L136.97,65.411C136.962,65.425 136.956,65.441 136.95,65.456C136.691,66.082 136.988,66.8 137.615,67.059C138.242,67.318 138.959,67.021 139.218,66.394L139.435,65.869C139.681,65.273 139.418,64.58 138.827,64.304C138.218,64.02 137.496,64.282 137.213,64.891Z" style="fill:rgb(100,102,233);fill-rule:nonzero;"/>
            <path d="M119.102,64.342L118.537,65.402L118.522,65.429C118.51,65.451 118.499,65.475 118.488,65.498C118.129,66.266 118.461,67.178 119.228,67.538C119.996,67.896 120.909,67.565 121.268,66.797L121.799,65.66C122.133,64.942 121.853,64.077 121.147,63.701C120.416,63.311 119.507,63.587 119.117,64.318L119.102,64.342Z" style="fill:rgb(100,102,233);fill-rule:nonzero;"/>
            <path d="M121.961,61.852C122.674,62.109 123.459,61.74 123.715,61.027L124.14,59.848C124.378,59.185 124.058,58.44 123.4,58.163C122.719,57.876 121.936,58.196 121.649,58.877L121.637,58.901L121.171,60.009L121.16,60.036C121.152,60.057 121.143,60.078 121.136,60.1C120.879,60.81 121.249,61.596 121.961,61.852Z" style="fill:rgb(100,102,233);fill-rule:nonzero;"/>
            <path d="M123.652,53.21L123.644,53.233L123.287,54.382L123.279,54.408C123.273,54.428 123.268,54.446 123.263,54.466C123.1,55.112 123.491,55.77 124.137,55.933C124.784,56.096 125.441,55.705 125.604,55.058L125.911,53.845C126.062,53.245 125.718,52.621 125.12,52.436C124.502,52.245 123.844,52.59 123.652,53.21Z" style="fill:rgb(100,102,233);fill-rule:nonzero;"/>
            <path d="M126.275,46.569C125.728,46.459 125.195,46.812 125.083,47.359L125.079,47.38L124.84,48.562L124.835,48.586C124.832,48.603 124.829,48.62 124.827,48.637C124.742,49.208 125.137,49.739 125.707,49.823C126.278,49.908 126.809,49.513 126.893,48.943L127.076,47.709C127.152,47.181 126.804,46.676 126.275,46.569Z" style="fill:rgb(100,102,233);fill-rule:nonzero;"/>
            <path d="M126.853,40.62C126.387,40.574 125.971,40.913 125.924,41.379L125.923,41.397L125.802,42.601L125.799,42.621C125.798,42.635 125.797,42.65 125.796,42.665C125.772,43.151 126.148,43.564 126.635,43.587C127.122,43.611 127.534,43.235 127.557,42.748L127.616,41.506C127.635,41.058 127.303,40.666 126.853,40.62Z" style="fill:rgb(100,102,233);fill-rule:nonzero;"/>
            <path d="M126.187,35.324L126.187,35.336L126.18,36.553L126.18,36.568C126.18,36.58 126.18,36.591 126.181,36.603C126.199,36.999 126.535,37.306 126.931,37.286C127.328,37.268 127.634,36.932 127.615,36.536L127.557,35.294C127.54,34.934 127.243,34.643 126.877,34.642C126.497,34.641 126.189,34.946 126.187,35.324Z" style="fill:rgb(100,102,233);fill-rule:nonzero;"/>
            <path d="M125.91,29.261L125.911,29.269L126.007,30.48L126.008,30.491C126.009,30.501 126.009,30.509 126.01,30.519C126.051,30.823 126.329,31.037 126.633,30.996C126.938,30.956 127.151,30.677 127.111,30.373L126.949,29.153C126.912,28.881 126.668,28.679 126.39,28.701C126.102,28.722 125.888,28.974 125.91,29.261Z" style="fill:rgb(100,102,233);fill-rule:nonzero;"/>
            <path d="M125.155,23.22L125.341,24.423C125.342,24.429 125.344,24.443 125.345,24.449C125.39,24.661 125.597,24.796 125.809,24.752C126.021,24.708 126.156,24.5 126.112,24.288L125.861,23.087C125.819,22.903 125.639,22.775 125.45,22.806C125.253,22.838 125.122,23.023 125.155,23.22Z" style="fill:rgb(100,102,233);fill-rule:nonzero;"/>
            <path d="M124.536,18.584C124.657,18.551 124.728,18.425 124.695,18.304L124.369,17.121C124.341,17.022 124.238,16.959 124.136,16.983C124.031,17.007 123.966,17.113 123.989,17.217L124.25,18.41C124.251,18.414 124.253,18.421 124.254,18.425C124.288,18.547 124.414,18.618 124.536,18.584Z" style="fill:rgb(100,102,233);fill-rule:nonzero;"/>
            <path d="M122.815,12.466C122.826,12.501 122.863,12.519 122.897,12.508C122.932,12.497 122.95,12.46 122.939,12.426L122.553,11.262C122.546,11.246 122.529,11.236 122.513,11.241C122.496,11.246 122.486,11.264 122.491,11.281L122.815,12.464C122.814,12.463 122.814,12.465 122.815,12.466Z" style="fill:rgb(100,102,233);fill-rule:nonzero;"/>
            <path d="M106.945,15.832C106.971,15.826 106.987,15.8 106.981,15.776L106.698,14.583L106.888,15.794C106.888,15.795 106.888,15.798 106.889,15.799C106.895,15.822 106.921,15.838 106.945,15.832Z" style="fill:rgb(100,102,233);fill-rule:nonzero;"/>
            <path d="M107.564,21.873C107.564,21.88 107.565,21.891 107.566,21.899C107.591,22.053 107.737,22.159 107.891,22.134C108.046,22.11 108.151,21.964 108.127,21.809L107.933,20.6C107.912,20.48 107.8,20.39 107.676,20.402C107.546,20.415 107.451,20.53 107.464,20.66L107.564,21.873Z" style="fill:rgb(100,102,233);fill-rule:nonzero;"/>
            <path d="M107.8,26.751L107.8,26.757L107.82,27.978L107.82,27.985C107.82,27.997 107.821,28.011 107.822,28.024C107.849,28.31 108.102,28.52 108.389,28.494C108.676,28.468 108.885,28.215 108.859,27.927L108.744,26.7C108.72,26.457 108.513,26.267 108.265,26.272C108.004,26.275 107.797,26.49 107.8,26.751Z" style="fill:rgb(100,102,233);fill-rule:nonzero;"/>
            <path d="M107.746,32.847L107.746,32.857L107.69,34.074L107.69,34.085C107.689,34.103 107.689,34.123 107.69,34.141C107.702,34.558 108.052,34.887 108.469,34.875C108.886,34.863 109.215,34.513 109.202,34.096L109.164,32.859C109.152,32.494 108.86,32.191 108.488,32.173C108.096,32.154 107.765,32.456 107.746,32.847Z" style="fill:rgb(100,102,233);fill-rule:nonzero;"/>
            <path d="M109.156,40.288L109.196,39.049C109.211,38.561 108.849,38.133 108.355,38.079C107.836,38.021 107.369,38.395 107.312,38.914L107.311,38.926L107.177,40.134L107.176,40.149C107.174,40.174 107.172,40.198 107.171,40.223C107.153,40.771 107.583,41.23 108.13,41.248C108.679,41.265 109.137,40.836 109.156,40.288Z" style="fill:rgb(100,102,233);fill-rule:nonzero;"/>
            <path d="M106.485,44.937L106.271,46.128L106.267,46.146C106.262,46.175 106.257,46.206 106.255,46.237C106.186,46.913 106.678,47.515 107.354,47.584C108.03,47.652 108.632,47.16 108.701,46.484L108.826,45.246C108.886,44.638 108.47,44.074 107.859,43.964C107.218,43.849 106.603,44.275 106.488,44.917L106.485,44.937Z" style="fill:rgb(100,102,233);fill-rule:nonzero;"/>
            <path d="M106.086,53.846C106.882,53.99 107.645,53.461 107.788,52.664L108.01,51.433C108.138,50.713 107.694,49.997 106.974,49.81C106.217,49.612 105.442,50.065 105.244,50.823L105.238,50.847L104.934,52.012L104.928,52.037C104.919,52.073 104.911,52.108 104.904,52.144C104.76,52.94 105.29,53.702 106.086,53.846Z" style="fill:rgb(100,102,233);fill-rule:nonzero;"/>
            <path d="M104.235,59.963C105.14,60.217 106.079,59.689 106.332,58.783L106.672,57.568C106.9,56.745 106.462,55.867 105.646,55.569C104.789,55.256 103.84,55.697 103.527,56.555L103.513,56.59L103.105,57.71L103.093,57.745C103.078,57.784 103.066,57.824 103.053,57.866C102.801,58.771 103.329,59.711 104.235,59.963Z" style="fill:rgb(100,102,233);fill-rule:nonzero;"/>
            <path d="M85.343,40.431C85.343,40.431 85.343,40.43 85.343,40.431C85.344,40.425 85.342,40.42 85.335,40.419C85.331,40.418 85.324,40.42 85.323,40.426L84.992,41.608L85.343,40.431Z" style="fill:rgb(100,102,233);fill-rule:nonzero;"/>
            <path d="M86.979,35.808L87.448,34.676L87.449,34.674C87.461,34.643 87.446,34.607 87.415,34.595C87.384,34.583 87.348,34.598 87.336,34.63L86.885,35.772C86.875,35.797 86.887,35.827 86.913,35.837C86.941,35.847 86.969,35.834 86.979,35.808Z" style="fill:rgb(100,102,233);fill-rule:nonzero;"/>
            <path d="M89.571,30.263L90.165,29.193L90.167,29.19C90.195,29.136 90.176,29.068 90.122,29.04C90.068,29.012 90,29.031 89.972,29.085L89.394,30.17C89.37,30.219 89.388,30.28 89.436,30.306C89.485,30.332 89.545,30.312 89.571,30.263Z" style="fill:rgb(100,102,233);fill-rule:nonzero;"/>
            <path d="M92.796,25.07L93.518,24.083C93.518,24.083 93.522,24.078 93.522,24.077C93.573,24.005 93.556,23.904 93.484,23.853C93.411,23.801 93.311,23.818 93.259,23.891L92.548,24.895C92.502,24.964 92.517,25.06 92.585,25.106C92.655,25.155 92.748,25.138 92.796,25.07Z" style="fill:rgb(100,102,233);fill-rule:nonzero;"/>
            <path d="M96.667,20.35L97.518,19.475C97.518,19.475 97.524,19.469 97.524,19.468C97.604,19.383 97.6,19.249 97.515,19.17C97.431,19.09 97.297,19.094 97.217,19.178L96.372,20.076C96.3,20.158 96.302,20.287 96.382,20.362C96.464,20.438 96.592,20.432 96.667,20.35Z" style="fill:rgb(100,102,233);fill-rule:nonzero;"/>
            <path d="M101.161,16.245L101.167,16.241L102.137,15.503L102.145,15.497C102.146,15.497 102.146,15.496 102.147,15.496C102.261,15.407 102.281,15.242 102.191,15.129C102.102,15.016 101.937,14.996 101.824,15.085L100.854,15.847C100.746,15.931 100.727,16.087 100.809,16.196C100.892,16.308 101.05,16.329 101.161,16.245Z" style="fill:rgb(100,102,233);fill-rule:nonzero;"/>
            <path d="M106.224,12.875L106.233,12.87L107.305,12.295L107.315,12.29C107.316,12.29 107.317,12.289 107.317,12.289C107.467,12.205 107.521,12.015 107.437,11.864C107.354,11.714 107.164,11.661 107.013,11.744L105.933,12.346C105.79,12.426 105.737,12.607 105.815,12.752C105.894,12.899 106.077,12.953 106.224,12.875Z" style="fill:rgb(100,102,233);fill-rule:nonzero;"/>
            <path d="M111.744,10.337L111.754,10.333L112.901,9.93L112.913,9.926C112.914,9.926 112.915,9.925 112.916,9.925C113.104,9.855 113.2,9.648 113.13,9.46C113.06,9.272 112.853,9.177 112.665,9.247L111.505,9.676C111.326,9.742 111.231,9.941 111.295,10.122C111.36,10.305 111.561,10.402 111.744,10.337Z" style="fill:rgb(100,102,233);fill-rule:nonzero;"/>
            <path d="M117.581,8.666L117.592,8.664L118.786,8.432L118.799,8.43C118.8,8.43 118.802,8.43 118.804,8.428C119.027,8.382 119.17,8.163 119.122,7.94C119.074,7.717 118.857,7.575 118.634,7.623L117.423,7.878C117.21,7.923 117.07,8.132 117.111,8.347C117.152,8.566 117.363,8.708 117.581,8.666Z" style="fill:rgb(100,102,233);fill-rule:nonzero;"/>
            <path d="M123.595,7.834L123.606,7.832L124.819,7.761L124.833,7.76L124.838,7.76C125.093,7.74 125.283,7.518 125.263,7.264C125.244,7.009 125.022,6.819 124.768,6.839L123.534,6.932C123.288,6.95 123.102,7.163 123.117,7.409C123.131,7.658 123.346,7.848 123.595,7.834Z" style="fill:rgb(100,102,233);fill-rule:nonzero;"/>
            <path d="M129.668,7.764L129.679,7.765L130.892,7.835L130.907,7.836L130.913,7.836C131.196,7.847 131.435,7.627 131.446,7.344C131.458,7.061 131.238,6.822 130.955,6.811L129.717,6.759C129.443,6.748 129.21,6.958 129.194,7.232C129.18,7.51 129.391,7.748 129.668,7.764Z" style="fill:rgb(100,102,233);fill-rule:nonzero;"/>
            <path d="M135.698,8.403L135.713,8.405L136.905,8.622L136.922,8.626C136.924,8.626 136.926,8.627 136.928,8.627C137.236,8.677 137.527,8.47 137.577,8.162C137.627,7.854 137.42,7.564 137.112,7.513L135.888,7.311C135.59,7.262 135.307,7.461 135.253,7.759C135.197,8.059 135.397,8.347 135.698,8.403Z" style="fill:rgb(100,102,233);fill-rule:nonzero;"/>
            <path d="M141.582,9.802L141.599,9.808L142.748,10.186L142.768,10.192C142.77,10.194 142.773,10.194 142.775,10.195C143.1,10.295 143.446,10.114 143.547,9.789C143.647,9.464 143.466,9.118 143.141,9.017L141.951,8.648C141.636,8.55 141.3,8.723 141.195,9.037C141.091,9.354 141.264,9.697 141.582,9.802Z" style="fill:rgb(100,102,233);fill-rule:nonzero;"/>
            <path d="M147.186,12.025L147.206,12.035L148.279,12.583L148.301,12.594C148.303,12.595 148.306,12.596 148.308,12.598C148.64,12.759 149.039,12.622 149.203,12.291C149.366,11.96 149.227,11.56 148.896,11.397L147.775,10.847C147.453,10.69 147.063,10.819 146.9,11.139C146.735,11.463 146.862,11.859 147.186,12.025Z" style="fill:rgb(100,102,233);fill-rule:nonzero;"/>
            <path d="M152.362,15.122L153.323,15.843L153.346,15.862C153.348,15.863 153.351,15.865 153.352,15.866C153.673,16.099 154.124,16.028 154.357,15.707C154.59,15.386 154.519,14.935 154.197,14.702L153.183,13.966C152.87,13.74 152.432,13.805 152.199,14.115C151.964,14.428 152.027,14.873 152.34,15.107L152.362,15.122Z" style="fill:rgb(100,102,233);fill-rule:nonzero;"/>
            <path d="M156.869,19.065L157.672,19.952L157.695,19.978C157.698,19.98 157.699,19.983 157.702,19.984C157.993,20.294 158.48,20.31 158.792,20.02C159.102,19.728 159.118,19.241 158.828,18.929L157.968,18.012C157.684,17.71 157.21,17.689 156.902,17.969C156.59,18.251 156.567,18.732 156.849,19.043L156.869,19.065Z" style="fill:rgb(100,102,233);fill-rule:nonzero;"/>
            <path d="M160.504,23.793L161.109,24.821L161.129,24.854C161.13,24.856 161.132,24.859 161.134,24.862C161.37,25.25 161.877,25.373 162.264,25.136C162.652,24.899 162.775,24.392 162.538,24.005L161.881,22.929C161.65,22.552 161.158,22.427 160.775,22.652C160.389,22.879 160.259,23.377 160.487,23.763L160.504,23.793Z" style="fill:rgb(100,102,233);fill-rule:nonzero;"/>
            <path d="M163.069,29.153L163.441,30.283L163.454,30.322C163.455,30.325 163.457,30.328 163.458,30.331C163.616,30.788 164.114,31.029 164.57,30.87C165.027,30.712 165.268,30.214 165.109,29.758L164.694,28.564C164.54,28.12 164.058,27.88 163.609,28.027C163.155,28.175 162.908,28.663 163.058,29.117L163.069,29.153Z" style="fill:rgb(100,102,233);fill-rule:nonzero;"/>
            <path d="M164.427,34.887L164.431,34.926L164.553,36.108L164.558,36.151C164.558,36.154 164.559,36.158 164.559,36.161C164.621,36.669 165.082,37.031 165.59,36.97C166.098,36.908 166.459,36.447 166.398,35.94L166.246,34.684C166.186,34.189 165.739,33.831 165.243,33.884C164.74,33.935 164.374,34.384 164.427,34.887Z" style="fill:rgb(100,102,233);fill-rule:nonzero;"/>
            <path d="M165.62,39.95C165.089,39.895 164.615,40.282 164.559,40.813L164.556,40.853L164.434,42.032L164.429,42.077C164.429,42.081 164.428,42.085 164.428,42.088C164.382,42.627 164.78,43.1 165.319,43.146C165.857,43.192 166.331,42.794 166.376,42.255L166.485,40.993C166.529,40.471 166.145,40.004 165.62,39.95Z" style="fill:rgb(100,102,233);fill-rule:nonzero;"/>
            <path d="M164.752,45.967C164.217,45.793 163.642,46.083 163.468,46.618L163.454,46.66L163.087,47.783L163.073,47.83C163.072,47.834 163.07,47.837 163.069,47.841C162.901,48.384 163.206,48.96 163.75,49.128C164.293,49.295 164.868,48.99 165.037,48.447L165.411,47.233C165.573,46.705 165.281,46.139 164.752,45.967Z" style="fill:rgb(100,102,233);fill-rule:nonzero;"/>
            <path d="M161.17,52.047L161.147,52.086L160.55,53.106L160.524,53.15C160.521,53.153 160.52,53.157 160.518,53.161C160.225,53.681 160.409,54.34 160.929,54.633C161.449,54.926 162.107,54.742 162.401,54.222L163.025,53.114C163.311,52.606 163.138,51.961 162.634,51.666C162.125,51.366 161.47,51.538 161.17,52.047Z" style="fill:rgb(100,102,233);fill-rule:nonzero;"/>
            <path d="M157.784,56.872L157.753,56.907L156.959,57.783L156.925,57.819C156.923,57.823 156.919,57.826 156.917,57.829C156.504,58.3 156.552,59.015 157.022,59.427C157.493,59.84 158.208,59.792 158.62,59.322L159.458,58.365C159.86,57.906 159.821,57.206 159.367,56.795C158.909,56.378 158.2,56.414 157.784,56.872Z" style="fill:rgb(100,102,233);fill-rule:nonzero;"/>
            <path d="M153.915,63.576L154.918,62.797C155.423,62.406 155.522,61.679 155.138,61.167C154.749,60.648 154.014,60.542 153.496,60.931L153.46,60.957L152.513,61.667L152.474,61.697C152.47,61.699 152.466,61.703 152.463,61.705C151.946,62.106 151.852,62.85 152.253,63.366C152.655,63.884 153.399,63.977 153.915,63.576Z" style="fill:rgb(100,102,233);fill-rule:nonzero;"/>
            <path d="M148.53,66.91L149.65,66.318C150.239,66.007 150.473,65.278 150.17,64.681C149.865,64.077 149.128,63.837 148.524,64.142L148.487,64.161L147.43,64.697L147.388,64.718C147.385,64.72 147.38,64.723 147.376,64.724C146.773,65.043 146.542,65.791 146.861,66.393C147.18,66.998 147.928,67.229 148.53,66.91Z" style="fill:rgb(100,102,233);fill-rule:nonzero;"/>
            <path d="M143.075,66.489L143.038,66.501L141.907,66.868L141.865,66.881C141.86,66.883 141.855,66.885 141.85,66.886C141.178,67.117 140.82,67.849 141.051,68.521C141.281,69.194 142.014,69.552 142.686,69.321L143.882,68.911C144.539,68.686 144.897,67.973 144.681,67.309C144.465,66.638 143.745,66.272 143.075,66.489Z" style="fill:rgb(100,102,233);fill-rule:nonzero;"/>
            <path d="M136.569,70.857L137.808,70.616C138.517,70.478 138.989,69.796 138.862,69.082C138.735,68.359 138.046,67.877 137.323,68.005L137.287,68.011L136.114,68.218L136.073,68.226C136.068,68.227 136.063,68.228 136.058,68.228C135.332,68.369 134.858,69.072 134.999,69.797C135.141,70.523 135.843,70.998 136.569,70.857Z" style="fill:rgb(100,102,233);fill-rule:nonzero;"/>
            <path d="M130.316,71.588L131.572,71.502C132.321,71.45 132.894,70.808 132.856,70.055C132.817,69.294 132.168,68.708 131.407,68.747L131.374,68.748L130.182,68.81L130.143,68.812C130.138,68.812 130.132,68.812 130.127,68.813C129.36,68.866 128.782,69.528 128.834,70.295C128.885,71.06 129.549,71.639 130.316,71.588Z" style="fill:rgb(100,102,233);fill-rule:nonzero;"/>
            <path d="M125.462,68.776L125.42,68.773L124.238,68.683L124.19,68.68C124.185,68.68 124.18,68.678 124.177,68.678C123.383,68.631 122.701,69.234 122.653,70.028C122.605,70.821 123.209,71.503 124.002,71.551L125.268,71.628C126.046,71.675 126.72,71.089 126.779,70.31C126.838,69.522 126.248,68.837 125.462,68.776Z" style="fill:rgb(100,102,233);fill-rule:nonzero;"/>
            <path d="M117.73,70.621L118.972,70.879C119.76,71.042 120.536,70.544 120.711,69.757C120.889,68.962 120.389,68.173 119.594,67.995L119.552,67.985L118.397,67.728L118.348,67.717C118.343,67.715 118.338,67.714 118.334,67.714C117.532,67.547 116.746,68.063 116.579,68.866C116.412,69.669 116.927,70.454 117.73,70.621Z" style="fill:rgb(100,102,233);fill-rule:nonzero;"/>
            <path d="M111.653,68.805L112.847,69.236C113.627,69.519 114.491,69.124 114.786,68.345C115.084,67.56 114.688,66.681 113.903,66.383L113.862,66.367L112.756,65.948L112.708,65.93C112.703,65.928 112.698,65.926 112.694,65.925C111.9,65.638 111.023,66.049 110.734,66.843C110.447,67.641 110.858,68.518 111.653,68.805Z" style="fill:rgb(100,102,233);fill-rule:nonzero;"/>
            <path d="M108.497,63.989L108.458,63.968L107.421,63.399L107.376,63.374C107.371,63.372 107.367,63.37 107.362,63.367C106.593,62.96 105.639,63.253 105.232,64.022C104.825,64.791 105.118,65.746 105.887,66.153L107.009,66.746C107.764,67.145 108.703,66.867 109.115,66.116C109.534,65.358 109.256,64.406 108.497,63.989Z" style="fill:rgb(100,102,233);fill-rule:nonzero;"/>
            <path d="M101.574,63.471C102.287,63.985 103.284,63.833 103.81,63.126C104.341,62.411 104.193,61.401 103.479,60.87L103.444,60.843L102.495,60.138L102.454,60.107C102.45,60.103 102.445,60.101 102.441,60.098C101.715,59.575 100.701,59.739 100.177,60.465C99.653,61.191 99.818,62.206 100.544,62.729L101.574,63.471Z" style="fill:rgb(100,102,233);fill-rule:nonzero;"/>
            <path d="M95.711,58.606L96.632,59.483C97.287,60.106 98.324,60.09 98.959,59.443C99.601,58.79 99.591,57.74 98.937,57.099L98.904,57.067L98.06,56.241C98.06,56.241 98.015,56.195 98.011,56.192C97.344,55.556 96.289,55.582 95.653,56.249C95.018,56.915 95.044,57.97 95.711,58.606Z" style="fill:rgb(100,102,233);fill-rule:nonzero;"/>
            <path d="M91.751,51.451C91.011,52.041 90.889,53.119 91.479,53.859L92.273,54.855C92.852,55.581 93.911,55.71 94.648,55.139C95.392,54.564 95.528,53.493 94.953,52.75L94.924,52.712L94.201,51.778L94.167,51.734C94.163,51.729 94.159,51.726 94.157,51.721C93.567,50.981 92.49,50.861 91.751,51.451Z" style="fill:rgb(100,102,233);fill-rule:nonzero;"/>
            <path d="M88.548,46.158C87.713,46.654 87.437,47.733 87.932,48.568L88.582,49.665C89.069,50.484 90.126,50.767 90.957,50.291C91.795,49.81 92.085,48.741 91.605,47.902L91.58,47.859L90.995,46.838L90.967,46.789C90.964,46.784 90.961,46.779 90.958,46.774C90.463,45.939 89.384,45.663 88.548,46.158Z" style="fill:rgb(100,102,233);fill-rule:nonzero;"/>
            <path d="M85.152,42.827L85.643,44.007C86.02,44.91 87.054,45.347 87.965,44.984C88.886,44.616 89.334,43.573 88.967,42.651L88.948,42.603L88.512,41.512L88.49,41.457C88.488,41.452 88.485,41.446 88.484,41.441C88.101,40.521 87.044,40.085 86.124,40.468C85.204,40.851 84.769,41.907 85.152,42.827Z" style="fill:rgb(100,102,233);fill-rule:nonzero;"/>
        </g>
    </g>
</svg>
